<svg width="45" height="45" viewBox="0 0 45 45" fill="none" xmlns="http://www.w3.org/2000/svg">
<circle cx="22.5" cy="22.5" r="22.5" fill="#EEB044"/>
<path d="M26.91 11.4168C27.423 11.4155 27.8286 11.8141 27.8298 12.3455L27.831 13.2513C31.1595 13.5122 33.3583 15.7803 33.3619 19.2585L33.375 29.4397C33.3798 33.232 30.9973 35.5653 27.1784 35.5713L17.8502 35.5834C14.0552 35.5882 11.6429 33.1993 11.6381 29.3962L11.625 19.3346C11.6202 15.8334 13.7414 13.5713 17.07 13.2658L17.0688 12.36C17.0676 11.8286 17.4613 11.4288 17.9862 11.4288C18.5111 11.4276 18.9048 11.8262 18.906 12.3576L18.9072 13.203L25.9938 13.1933L25.9926 12.3479C25.9914 11.8165 26.3851 11.418 26.91 11.4168ZM27.3968 28.5653H27.3848C26.836 28.5786 26.3958 29.0387 26.4077 29.5943C26.4089 30.1498 26.8515 30.6076 27.4003 30.6196C27.9599 30.6184 28.4132 30.1583 28.412 29.5907C28.412 29.023 27.9575 28.5653 27.3968 28.5653ZM17.5663 28.5665C17.0175 28.5907 16.588 29.0508 16.5892 29.6064C16.6142 30.1619 17.0676 30.5967 17.6164 30.5713C18.1544 30.5472 18.5827 30.087 18.5577 29.5315C18.5457 28.988 18.1031 28.5653 17.5663 28.5665ZM22.4815 28.5605C21.9327 28.5858 21.5044 29.0448 21.5044 29.6003C21.5295 30.1559 21.9828 30.5894 22.5316 30.5653C23.0685 30.5399 23.498 30.081 23.4729 29.5242C23.461 28.982 23.0184 28.5593 22.4815 28.5605ZM17.5603 24.2187C17.0115 24.2428 16.5832 24.703 16.5844 25.2585C16.6083 25.8141 17.0628 26.2489 17.6116 26.2235C18.1485 26.1994 18.5768 25.7392 18.5517 25.1837C18.5398 24.6402 18.0983 24.2175 17.5603 24.2187ZM22.4767 24.1764C21.9279 24.2006 21.4985 24.6607 21.4997 25.2163C21.5235 25.7718 21.9781 26.2054 22.5268 26.1812C23.0637 26.1559 23.492 25.6969 23.4681 25.1414C23.455 24.5979 23.0136 24.1752 22.4767 24.1764ZM27.392 24.1824C26.8432 24.1945 26.4137 24.6414 26.4149 25.1969V25.2102C26.4268 25.7658 26.8802 26.1873 27.4302 26.1752C27.967 26.1619 28.3953 25.7018 28.3834 25.1462C28.3583 24.6148 27.9277 24.1812 27.392 24.1824ZM25.9961 15.0532L18.9096 15.0629L18.9108 16.0399C18.9108 16.5605 18.5183 16.9711 17.9934 16.9711C17.4684 16.9723 17.0735 16.5629 17.0735 16.0424L17.0724 15.1124C14.746 15.3455 13.4587 16.7126 13.4623 19.3322L13.4635 19.7078L31.5258 19.6837V19.2609C31.4745 16.6643 30.1717 15.302 27.8334 15.0991L27.8346 16.0291C27.8346 16.5484 27.4302 16.9602 26.9172 16.9602C26.3922 16.9614 25.9973 16.5508 25.9973 16.0315L25.9961 15.0532Z" fill="white"/>
</svg>
