<svg width="45" height="45" viewBox="0 0 45 45" fill="none" xmlns="http://www.w3.org/2000/svg">
<circle cx="22.5" cy="22.5" r="22.5" fill="#EEB044"/>
<path opacity="0.4" d="M27.7463 10H17.2661C12.7139 10 10 12.821 10 17.553V28.434C10 33.179 12.7139 36 17.2661 36H27.7338C32.2861 36 35 33.179 35 28.447V17.553C35.0125 12.821 32.2986 10 27.7463 10Z" fill="white"/>
<path d="M28.0712 16H22.0898C21.582 16 21.161 16.4533 21.161 17C21.161 17.5467 21.582 18 22.0898 18H25.8297L16.2693 28.2933C15.9102 28.68 15.9102 29.32 16.2693 29.7067C16.4551 29.9067 16.6904 30 16.9257 30C17.161 30 17.3963 29.9067 17.582 29.7067L27.1424 19.4133V23.44C27.1424 23.9867 27.5635 24.44 28.0712 24.44C28.5789 24.44 29 23.9867 29 23.44V17C29 16.4533 28.5789 16 28.0712 16Z" fill="white"/>
</svg>
