<svg width="45" height="45" viewBox="0 0 45 45" fill="none" xmlns="http://www.w3.org/2000/svg">
<circle cx="22.5" cy="22.5" r="22.5" fill="#EEB044"/>
<path d="M30.672 14.7342L15.5278 29.8784C14.9602 30.446 14.0056 30.3686 13.5412 29.6978C11.9417 27.3629 11 24.6024 11 21.7645V16.1015C11 15.0438 11.7998 13.8441 12.7802 13.4442L19.9653 10.5031C21.5907 9.8323 23.3966 9.8323 25.022 10.5031L30.2334 12.6315C31.0977 12.9798 31.317 14.0892 30.672 14.7342Z" fill="#FFFEFD"/>
<path d="M31.8844 16.5016C32.7229 15.7922 34 16.3984 34 17.4949V21.7647C34 28.0726 29.4206 33.9807 23.1643 35.7092C22.7386 35.8253 22.2742 35.8253 21.8356 35.7092C20.0038 35.1932 18.3011 34.3289 16.8434 33.1938C16.2242 32.7165 16.1597 31.8135 16.7015 31.2588C19.5137 28.3822 27.7436 19.9974 31.8844 16.5016Z" fill="#FFFEFD"/>
</svg>
