<svg width="52" height="52" viewBox="0 0 52 52" fill="none" xmlns="http://www.w3.org/2000/svg">
<path d="M35.4034 4.33301C42.7484 4.33301 47.6668 9.48967 47.6668 17.1597V34.8635C47.6668 42.5097 42.7484 47.6663 35.4034 47.6663H16.6184C9.27342 47.6663 4.33342 42.5097 4.33342 34.8635V17.1597C4.33342 9.48967 9.27342 4.33301 16.6184 4.33301H35.4034ZM35.0568 19.4997C34.3201 18.763 33.1068 18.763 32.3701 19.4997L23.4218 28.448L19.6301 24.6563C18.8934 23.9197 17.6801 23.9197 16.9434 24.6563C16.2068 25.393 16.2068 26.5847 16.9434 27.343L22.1001 32.478C22.4684 32.8463 22.9451 33.0197 23.4218 33.0197C23.9201 33.0197 24.3968 32.8463 24.7651 32.478L35.0568 22.1863C35.7934 21.4497 35.7934 20.258 35.0568 19.4997Z" fill="#EEB044"/>
</svg>
